<?xml version="1.0" encoding="UTF-8" standalone="no"?>
<!DOCTYPE svg PUBLIC "-//W3C//DTD SVG 1.1//EN" "http://www.w3.org/Graphics/SVG/1.1/DTD/svg11.dtd">
<svg xmlns="http://www.w3.org/2000/svg" version="1.1" viewBox="0.00 0.00 512.00 512.00">
<path fill="#000000" d="
  M 314.59 0.00
  L 384.00 0.00
  Q 394.46 1.58 394.45 12.25
  Q 394.43 48.37 394.42 84.51
  C 394.42 96.37 390.57 99.17 378.65 99.16
  Q 358.57 99.15 338.50 99.15
  Q 328.17 99.15 319.95 101.69
  C 304.37 106.52 302.85 121.30 302.80 135.52
  Q 302.71 159.44 302.79 183.53
  Q 302.79 184.05 303.31 184.05
  Q 339.10 184.11 374.90 184.07
  Q 382.69 184.06 385.44 185.30
  Q 391.27 187.92 391.27 195.75
  Q 391.25 235.29 391.25 274.85
  C 391.25 280.62 390.71 285.35 385.52 287.88
  Q 382.90 289.16 375.72 289.17
  Q 339.37 289.19 303.12 289.17
  A 0.36 0.35 90.0 0 0 302.77 289.53
  Q 302.77 393.22 302.76 496.71
  C 302.76 504.90 301.64 510.58 292.92 512.00
  L 204.47 512.00
  Q 194.79 510.14 194.79 499.99
  Q 194.78 394.93 194.75 289.75
  Q 194.75 289.21 194.21 289.21
  Q 163.89 289.10 133.68 289.18
  Q 126.18 289.20 123.52 287.97
  C 118.04 285.43 117.58 280.46 117.58 274.46
  Q 117.55 237.33 117.57 200.20
  Q 117.58 192.61 118.82 189.96
  C 121.41 184.44 126.54 184.06 132.60 184.07
  Q 163.42 184.11 194.23 184.05
  Q 194.76 184.05 194.76 183.52
  Q 194.75 154.33 194.84 125.26
  C 194.94 95.90 202.58 66.33 220.61 43.10
  C 243.06 14.16 278.69 0.53 314.59 0.00
  Z"
/>
</svg>
