<?xml version="1.0" encoding="UTF-8" standalone="no"?>
<!DOCTYPE svg PUBLIC "-//W3C//DTD SVG 1.1//EN" "http://www.w3.org/Graphics/SVG/1.1/DTD/svg11.dtd">
<svg xmlns="http://www.w3.org/2000/svg" version="1.1" viewBox="0.00 0.00 2443.00 858.00">
<g stroke-width="2.00" fill="none" stroke-linecap="butt">
<path stroke="#9d4e4f" vector-effect="non-scaling-stroke" d="
  M 236.82 123.16
  L 236.43 245.58
  A 1.35 1.35 0.0 0 1 235.08 246.93
  L 169.86 246.86"
/>
<path stroke="#9d4e4f" vector-effect="non-scaling-stroke" d="
  M 335.36 160.55
  Q 335.25 160.78 335.14 160.89
  Q 335.00 161.05 335.00 161.26
  L 335.01 245.28
  A 1.89 1.89 0.0 0 0 336.90 247.17
  L 463.59 247.17"
/>
<path stroke="#4b6c6c" vector-effect="non-scaling-stroke" d="
  M 429.53 347.35
  Q 429.29 346.61 429.24 346.94
  C 405.19 342.44 380.42 346.03 356.10 345.86
  Q 346.48 345.79 337.22 345.61
  A 2.53 2.53 0.0 0 0 334.63 348.16
  L 334.67 353.20
  A 2.61 2.61 0.0 0 1 332.84 355.72
  Q 286.30 370.41 239.85 384.18
  C 238.88 384.46 237.87 384.44 236.96 384.71"
/>
<path stroke="#9c6e6f" vector-effect="non-scaling-stroke" d="
  M 149.80 439.80
  L 121.01 438.50"
/>
<path stroke="#9c6e6f" vector-effect="non-scaling-stroke" d="
  M 226.22 476.49
  C 226.68 471.20 233.13 465.80 237.24 463.08
  C 245.46 457.65 233.64 451.96 228.74 451.69
  Q 216.36 451.01 204.06 449.32
  Q 203.54 449.25 203.33 448.77
  L 203.17 448.42"
/>
<path stroke="#4b6c6c" vector-effect="non-scaling-stroke" d="
  M 334.99 495.81
  L 236.88 527.25"
/>
<path stroke="#9c6e6f" vector-effect="non-scaling-stroke" d="
  M 163.57 555.13
  Q 161.08 552.57 163.96 549.46
  Q 173.77 538.85 198.21 510.86"
/>
<path stroke="#9d4e4f" vector-effect="non-scaling-stroke" d="
  M 335.24 591.79
  Q 334.62 592.35 335.02 592.50
  Q 334.90 661.78 335.18 731.06
  Q 335.18 731.74 335.48 731.44"
/>
<path stroke="#9d4e4f" vector-effect="non-scaling-stroke" d="
  M 236.44 697.48
  Q 236.44 697.30 236.66 697.20
  Q 236.91 697.09 236.91 696.81
  Q 237.07 627.11 237.27 557.40
  Q 237.27 557.23 237.22 557.10
  Q 237.04 556.71 236.89 556.96"
/>
</g>
<path fill="#ee5051" d="
  M 236.82 123.16
  L 236.43 245.58
  A 1.35 1.35 0.0 0 1 235.08 246.93
  L 169.86 246.86
  Q 169.58 245.61 168.53 245.15
  Q 151.89 237.73 137.23 226.99
  Q 117.00 212.16 115.27 187.53
  C 114.63 178.38 115.43 166.23 115.47 158.49
  Q 115.70 119.37 115.83 80.25
  C 115.86 70.85 116.54 53.38 115.97 39.91
  A 0.16 0.16 0.0 0 1 116.28 39.83
  C 124.35 56.57 135.71 69.33 150.58 80.72
  Q 189.12 110.22 236.82 123.16
  Z"
/>
<path fill="#4c4c4c" d="
  M 335.36 160.55
  Q 335.25 160.78 335.14 160.89
  Q 335.00 161.05 335.00 161.26
  L 335.01 245.28
  A 1.89 1.89 0.0 0 0 336.90 247.17
  L 463.59 247.17
  L 531.53 247.50
  Q 533.39 247.51 534.07 249.24
  L 570.72 343.53
  Q 571.16 344.66 570.06 345.16
  Q 569.82 345.27 568.89 345.28
  Q 510.08 346.09 451.25 346.56
  Q 440.26 346.65 429.53 347.35
  Q 429.29 346.61 429.24 346.94
  C 405.19 342.44 380.42 346.03 356.10 345.86
  Q 346.48 345.79 337.22 345.61
  A 2.53 2.53 0.0 0 0 334.63 348.16
  L 334.67 353.20
  A 2.61 2.61 0.0 0 1 332.84 355.72
  Q 286.30 370.41 239.85 384.18
  C 238.88 384.46 237.87 384.44 236.96 384.71
  L 237.38 347.31
  A 2.11 2.11 0.0 0 0 235.27 345.18
  L 54.55 345.18
  A 1.77 1.76 -10.8 0 1 52.91 344.07
  L 15.54 248.51
  A 0.71 0.71 0.0 0 1 16.20 247.54
  L 169.86 246.86
  L 235.08 246.93
  A 1.35 1.35 0.0 0 0 236.43 245.58
  L 236.82 123.16
  Q 236.67 122.89 236.80 122.70
  Q 236.91 122.54 236.91 122.34
  L 237.22 43.57
  A 0.92 0.92 0.0 0 1 238.44 42.70
  L 333.27 75.92
  A 2.59 2.57 9.8 0 1 335.00 78.35
  Q 335.11 118.99 334.91 159.97
  Q 334.91 160.19 334.97 160.35
  Q 335.19 160.91 335.36 160.55
  Z"
/>
<path fill="#4c4c4c" d="
  M 706.88 393.18
  C 662.74 378.71 625.50 347.07 605.80 304.75
  Q 578.16 245.33 595.22 180.26
  C 618.80 90.36 705.61 41.23 795.40 53.46
  C 842.12 59.82 881.15 82.83 908.61 121.32
  A 0.99 0.98 -36.8 0 1 908.41 122.66
  L 840.32 175.40
  A 1.55 1.55 0.0 0 1 838.12 175.09
  C 812.41 139.89 765.23 124.47 725.90 147.60
  Q 703.69 160.66 693.10 185.03
  C 670.79 236.38 695.25 313.12 758.65 317.44
  C 792.39 319.74 821.08 303.71 840.97 277.20
  A 0.97 0.97 0.0 0 1 842.31 276.99
  L 910.55 325.63
  A 0.81 0.81 0.0 0 1 910.74 326.74
  Q 866.24 391.83 787.02 401.33
  Q 746.51 406.18 706.88 393.18
  Z"
/>
<path fill="#4c4c4c" d="
  M 1756.49 335.75
  L 1733.34 394.05
  A 2.28 2.28 0.0 0 1 1731.22 395.49
  L 1636.25 395.56
  A 0.89 0.89 0.0 0 1 1635.43 394.32
  L 1778.13 56.77
  A 0.89 0.88 -78.3 0 1 1778.94 56.23
  L 1867.01 56.24
  A 1.62 1.62 0.0 0 1 1868.50 57.22
  Q 1939.59 225.50 2010.41 393.54
  Q 2010.68 394.19 2010.73 394.36
  Q 2011.06 395.54 2009.83 395.54
  L 1912.74 395.56
  A 1.52 1.51 78.6 0 1 1911.34 394.62
  L 1887.63 336.25
  A 1.93 1.92 78.8 0 0 1885.85 335.05
  L 1757.51 335.05
  A 1.09 1.09 0.0 0 0 1756.49 335.75
  Z
  M 1784.77 261.13
  A 1.39 1.39 0.0 0 0 1786.06 263.03
  L 1858.43 263.16
  A 1.39 1.39 0.0 0 0 1859.73 261.26
  L 1823.70 169.37
  A 1.39 1.39 0.0 0 0 1821.11 169.37
  L 1784.77 261.13
  Z"
/>
<path fill="#ee5051" d="
  M 2365.70 259.41
  A 1.21 1.21 0.0 0 0 2366.91 260.62
  L 2406.97 260.44
  A 1.67 1.66 89.7 0 1 2408.64 262.10
  Q 2408.69 294.44 2408.68 326.00
  C 2408.68 327.45 2408.68 330.56 2406.52 330.36
  Q 2405.55 330.27 2405.47 330.27
  Q 2386.48 330.20 2367.05 329.97
  Q 2365.72 329.96 2365.72 331.29
  Q 2365.61 357.87 2365.52 385.18
  C 2365.51 388.12 2365.17 391.32 2365.17 394.32
  A 1.15 1.15 0.0 0 1 2364.02 395.46
  L 2277.00 395.46
  Q 2275.29 395.46 2275.28 393.75
  L 2275.05 331.28
  Q 2275.05 330.02 2273.78 330.03
  L 2113.56 330.22
  A 1.85 1.83 83.1 0 1 2111.76 328.80
  L 2096.85 264.85
  A 1.41 1.41 0.0 0 1 2097.15 263.62
  L 2270.51 57.25
  A 2.94 2.94 0.0 0 1 2272.76 56.20
  L 2363.85 56.27
  Q 2365.68 56.27 2365.68 58.10
  L 2365.70 259.41
  Z
  M 2273.97 260.98
  A 1.27 1.27 0.0 0 0 2275.24 259.72
  L 2275.61 166.32
  A 1.27 1.27 0.0 0 0 2273.36 165.51
  L 2195.86 258.91
  A 1.27 1.27 0.0 0 0 2196.83 260.99
  L 2273.97 260.98
  Z"
/>
<path fill="#4c4c4c" d="
  M 1067.01 399.16
  C 1021.87 391.90 982.76 370.19 963.30 327.47
  C 951.88 302.40 948.11 272.41 947.98 243.01
  Q 947.60 151.26 947.85 59.57
  A 0.60 0.60 0.0 0 1 948.44 58.98
  Q 993.30 58.24 1038.36 58.69
  C 1040.12 58.71 1042.50 58.23 1042.50 60.75
  Q 1042.66 152.37 1042.66 244.00
  Q 1042.66 257.29 1043.71 263.93
  C 1047.73 289.11 1059.67 308.40 1085.26 315.44
  C 1121.75 325.48 1157.73 308.56 1165.40 269.66
  Q 1166.64 263.39 1166.80 249.75
  Q 1167.58 182.50 1166.99 115.25
  Q 1166.75 87.38 1167.06 60.45
  A 2.03 2.02 0.4 0 1 1169.10 58.45
  L 1260.91 58.93
  Q 1261.54 58.94 1261.54 59.57
  Q 1261.63 147.95 1261.45 236.26
  C 1261.41 253.06 1261.32 269.11 1258.71 285.25
  C 1250.74 334.52 1222.03 372.46 1175.49 389.98
  C 1141.93 402.62 1102.84 404.93 1067.01 399.16
  Z"
/>
<path fill="#4c4c4c" d="
  M 1553.05 219.34
  Q 1553.12 219.53 1553.68 219.78
  Q 1564.45 224.47 1574.91 229.66
  C 1604.93 244.54 1618.97 270.43 1618.67 303.22
  C 1618.05 371.33 1553.93 394.13 1497.06 395.86
  C 1478.22 396.43 1453.65 395.83 1431.25 395.73
  Q 1378.37 395.50 1325.50 395.32
  Q 1321.78 395.30 1318.61 395.17
  A 1.16 1.15 -89.0 0 1 1317.50 394.01
  L 1317.50 59.52
  Q 1317.50 59.07 1317.95 59.06
  C 1377.50 58.15 1437.42 58.79 1496.76 58.92
  Q 1510.36 58.95 1516.73 59.65
  C 1563.33 64.80 1605.09 95.51 1603.67 146.47
  Q 1602.66 183.08 1574.26 206.10
  C 1568.20 211.01 1560.78 214.84 1553.56 218.18
  A 0.97 0.96 -21.4 0 0 1553.05 219.34
  Z
  M 1408.32 134.58
  L 1408.22 191.70
  A 1.24 1.24 0.0 0 0 1409.46 192.94
  L 1475.43 193.06
  A 36.05 28.06 0.1 0 0 1511.53 165.06
  L 1511.53 161.58
  A 36.05 28.06 0.1 0 0 1475.53 133.46
  L 1409.56 133.34
  A 1.24 1.24 0.0 0 0 1408.32 134.58
  Z
  M 1408.30 260.24
  L 1408.20 318.50
  A 1.93 1.93 0.0 0 0 1410.13 320.43
  L 1488.36 320.57
  A 36.86 29.00 0.1 0 0 1525.27 291.63
  L 1525.27 287.51
  A 36.86 29.00 0.1 0 0 1488.46 258.45
  L 1410.23 258.31
  A 1.93 1.93 0.0 0 0 1408.30 260.24
  Z"
/>
<path fill="#ee5051" d="
  M 335.36 160.55
  Q 382.23 176.40 403.73 185.53
  C 428.06 195.86 459.82 218.87 463.59 247.17
  L 336.90 247.17
  A 1.89 1.89 0.0 0 1 335.01 245.28
  L 335.00 161.26
  Q 335.00 161.05 335.14 160.89
  Q 335.25 160.78 335.36 160.55
  Z"
/>
<path fill="#4a8c8c" d="
  M 429.53 347.35
  L 149.80 439.80
  L 121.01 438.50
  Q 123.79 434.88 127.07 431.81
  C 156.73 404.00 196.80 395.69 234.99 386.20
  Q 235.48 386.08 235.84 385.74
  L 236.96 384.71
  C 237.87 384.44 238.88 384.46 239.85 384.18
  Q 286.30 370.41 332.84 355.72
  A 2.61 2.61 0.0 0 0 334.67 353.20
  L 334.63 348.16
  A 2.53 2.53 0.0 0 1 337.22 345.61
  Q 346.48 345.79 356.10 345.86
  C 380.42 346.03 405.19 342.44 429.24 346.94
  Q 429.29 346.61 429.53 347.35
  Z"
/>
<path fill="#4a8c8c" d="
  M 226.22 476.49
  C 226.68 471.20 233.13 465.80 237.24 463.08
  C 245.46 457.65 233.64 451.96 228.74 451.69
  Q 216.36 451.01 204.06 449.32
  Q 203.54 449.25 203.33 448.77
  L 203.17 448.42
  L 468.18 361.14
  A 0.85 0.85 0.0 0 1 469.29 362.03
  L 466.23 396.34
  Q 466.11 397.65 464.87 398.06
  L 226.22 476.49
  Z"
/>
<path fill="#4a8c8c" d="
  M 334.99 495.81
  L 236.88 527.25
  Q 198.60 537.15 163.57 555.13
  Q 161.08 552.57 163.96 549.46
  Q 173.77 538.85 198.21 510.86
  Q 199.73 511.29 200.76 510.95
  Q 327.52 469.22 454.18 427.57
  A 1.03 1.03 0.0 0 1 455.48 428.24
  Q 455.59 428.60 455.52 429.17
  Q 455.46 429.58 455.17 429.97
  C 427.14 466.98 383.46 481.74 340.46 493.08
  C 338.32 493.64 336.78 494.61 334.99 495.81
  Z"
/>
<path fill="#ee5051" d="
  M 121.01 438.50
  L 149.80 439.80
  Q 150.01 440.20 150.22 440.45
  Q 150.43 440.71 150.88 440.82
  Q 173.38 446.62 196.49 449.03
  Q 200.12 449.41 203.17 448.42
  L 203.33 448.77
  Q 203.54 449.25 204.06 449.32
  Q 216.36 451.01 228.74 451.69
  C 233.64 451.96 245.46 457.65 237.24 463.08
  C 233.13 465.80 226.68 471.20 226.22 476.49
  Q 225.39 476.90 224.70 477.72
  Q 211.15 493.95 198.21 510.86
  Q 173.77 538.85 163.96 549.46
  Q 161.08 552.57 163.57 555.13
  C 140.55 568.27 119.12 583.95 108.93 607.91
  Q 108.67 608.52 108.22 608.72
  A 0.25 0.24 78.4 0 1 107.88 608.49
  Q 108.35 571.82 108.43 535.62
  Q 108.43 533.30 108.46 531.00
  Q 108.85 501.17 109.04 471.34
  Q 109.09 462.43 110.44 457.53
  Q 113.37 446.94 121.01 438.50
  Z
  M 166.66 476.40
  A 1.30 1.30 0.0 0 1 165.19 475.98
  L 157.39 465.98
  A 1.30 1.30 0.0 0 0 155.07 466.83
  L 155.57 479.50
  A 1.30 1.30 0.0 0 1 154.71 480.78
  L 142.79 485.10
  A 1.30 1.30 0.0 0 0 142.88 487.58
  L 155.09 491.02
  A 1.30 1.30 0.0 0 1 156.03 492.22
  L 156.46 504.90
  A 1.30 1.30 0.0 0 0 158.84 505.58
  L 165.89 495.03
  A 1.30 1.30 0.0 0 1 167.33 494.50
  L 179.52 498.01
  A 1.30 1.30 0.0 0 0 180.90 495.96
  L 173.04 486.00
  A 1.30 1.30 0.0 0 1 172.99 484.47
  L 180.09 473.96
  A 1.30 1.30 0.0 0 0 178.57 472.01
  L 166.66 476.40
  Z"
/>
<path fill="#4c4c4c" d="
  M 843.66 590.23
  C 821.08 563.26 790.15 545.21 753.46 553.80
  C 692.73 568.03 676.15 639.43 700.75 689.27
  C 718.71 725.66 760.57 740.70 798.42 728.08
  C 818.13 721.51 832.75 707.68 846.02 692.29
  A 1.02 1.01 38.1 0 1 847.37 692.13
  L 915.26 740.52
  Q 916.32 741.27 915.57 742.34
  Q 870.37 807.19 791.54 816.18
  Q 759.37 819.85 725.29 811.86
  C 664.12 797.51 616.71 752.28 600.13 691.08
  C 574.98 598.24 624.40 501.13 718.76 474.54
  Q 757.26 463.69 797.87 468.41
  C 845.52 473.94 885.66 497.53 913.72 536.57
  Q 914.05 537.03 913.60 537.39
  L 845.09 590.39
  A 1.04 1.03 51.3 0 1 843.66 590.23
  Z"
/>
<path fill="#4c4c4c" d="
  M 1929.44 468.89
  C 1985.72 464.35 2040.44 476.60 2085.71 511.87
  A 1.13 1.13 0.0 0 1 2085.94 513.42
  L 2040.53 577.60
  A 0.85 0.85 0.0 0 1 2039.34 577.80
  Q 2007.45 554.96 1969.05 547.05
  Q 1949.48 543.01 1931.41 546.53
  C 1920.31 548.70 1911.33 557.18 1911.72 569.14
  C 1912.20 584.00 1929.43 589.79 1940.58 592.82
  Q 1968.49 600.41 1996.54 607.50
  C 2044.28 619.58 2090.69 641.71 2095.53 697.74
  Q 2098.80 735.57 2078.64 765.15
  C 2058.62 794.54 2025.78 809.59 1991.35 813.90
  C 1927.23 821.94 1852.11 807.25 1803.24 761.29
  Q 1802.27 760.38 1803.12 759.36
  L 1852.86 699.87
  Q 1853.84 698.71 1855.02 699.66
  Q 1900.58 736.23 1958.75 739.18
  C 1974.31 739.97 1998.58 737.65 2001.43 717.94
  Q 2003.60 702.93 1988.51 695.80
  Q 1980.00 691.77 1962.48 687.12
  Q 1939.39 680.98 1916.27 674.96
  C 1874.11 663.98 1831.09 646.53 1820.32 598.99
  C 1814.33 572.54 1818.44 544.86 1832.40 522.03
  C 1852.92 488.50 1891.43 471.95 1929.44 468.89
  Z"
/>
<path fill="#4c4c4c" d="
  M 1050.05 683.33
  L 1050.06 809.06
  A 1.37 1.36 0.0 0 1 1048.69 810.42
  L 958.51 810.44
  Q 956.83 810.44 956.83 808.76
  L 956.83 475.88
  Q 956.83 473.34 959.37 473.34
  L 1048.46 473.38
  A 1.59 1.58 -0.0 0 1 1050.05 474.96
  L 1050.05 599.01
  A 0.96 0.96 0.0 0 0 1051.01 599.97
  L 1169.10 599.92
  A 1.21 1.21 0.0 0 0 1170.31 598.71
  L 1170.21 475.45
  A 2.10 2.09 90.0 0 1 1172.30 473.35
  L 1261.94 473.39
  Q 1263.48 473.39 1263.48 474.94
  L 1263.50 809.20
  Q 1263.50 810.02 1262.69 810.19
  Q 1261.28 810.48 1259.25 810.48
  Q 1215.79 810.46 1171.63 810.39
  Q 1170.83 810.39 1170.43 809.69
  Q 1170.13 809.18 1170.14 808.00
  Q 1170.30 745.42 1170.29 683.54
  A 1.27 1.26 -90.0 0 0 1169.03 682.27
  L 1051.05 682.34
  A 1.00 0.99 0.0 0 0 1050.05 683.33
  Z"
/>
<path fill="#4c4c4c" d="
  M 1417.03 709.19
  Q 1416.69 711.87 1416.69 715.00
  Q 1416.78 761.76 1416.78 808.90
  A 1.54 1.54 0.0 0 1 1415.24 810.44
  L 1325.33 810.43
  A 1.85 1.85 0.0 0 1 1323.48 808.58
  L 1323.67 474.36
  Q 1323.67 473.86 1324.16 473.80
  Q 1326.18 473.53 1329.00 473.52
  Q 1410.64 473.24 1475.50 473.49
  Q 1491.92 473.56 1495.50 473.70
  C 1547.65 475.88 1600.88 497.32 1617.29 551.72
  C 1625.76 579.78 1624.37 613.55 1611.26 640.39
  Q 1599.12 665.23 1575.43 680.65
  Q 1565.48 687.12 1554.56 692.60
  A 1.47 1.47 0.0 0 0 1554.00 694.74
  Q 1592.80 751.49 1631.79 808.50
  Q 1632.27 809.21 1632.29 809.38
  Q 1632.42 810.43 1631.25 810.43
  L 1527.98 810.44
  A 4.09 4.08 -16.8 0 1 1524.58 808.62
  L 1458.67 709.34
  A 2.62 2.60 -16.5 0 0 1456.49 708.17
  L 1418.22 708.14
  A 1.20 1.20 0.0 0 0 1417.03 709.19
  Z
  M 1416.28 555.66
  L 1416.70 634.31
  A 1.44 1.44 0.0 0 0 1418.14 635.75
  L 1486.11 635.39
  A 43.15 38.77 -0.3 0 0 1529.06 596.40
  L 1529.04 592.40
  A 43.15 38.77 -0.3 0 0 1485.69 553.85
  L 1417.72 554.21
  A 1.44 1.44 0.0 0 0 1416.28 555.66
  Z"
/>
<path fill="#4c4c4c" d="
  M 2213.46 555.17
  L 2114.48 555.20
  A 1.47 1.46 89.8 0 1 2113.01 553.73
  L 2113.01 475.55
  A 2.19 2.19 0.0 0 1 2115.20 473.36
  L 2406.76 473.37
  A 1.64 1.63 -3.8 0 1 2408.38 474.78
  Q 2408.64 476.73 2408.65 479.49
  Q 2408.73 515.67 2408.68 553.44
  A 1.69 1.69 0.0 0 1 2406.99 555.13
  L 2308.55 555.21
  Q 2307.31 555.21 2307.31 556.45
  L 2307.31 809.43
  Q 2307.31 810.41 2306.32 810.41
  L 2215.77 810.44
  A 1.76 1.76 0.0 0 1 2214.01 808.68
  L 2214.01 555.72
  A 0.55 0.55 0.0 0 0 2213.46 555.17
  Z"
/>
<rect fill="#4c4c4c" x="1671.74" y="473.48" width="93.86" height="336.96" rx="1.41"/>
<path fill="#4c4c4c" d="
  M 334.99 495.81
  L 334.94 591.17
  Q 334.94 591.38 335.07 591.55
  L 335.24 591.79
  Q 334.62 592.35 335.02 592.50
  Q 334.90 661.78 335.18 731.06
  Q 335.18 731.74 335.48 731.44
  Q 335.39 731.62 335.23 731.68
  A 0.35 0.35 0.0 0 0 335.02 732.00
  L 335.02 818.53
  Q 335.02 819.94 333.69 819.50
  L 238.29 788.02
  A 1.84 1.83 9.3 0 1 237.03 786.28
  L 236.91 697.75
  A 0.37 0.36 12.9 0 0 236.70 697.42
  Q 236.44 697.29 236.44 697.48
  Q 236.44 697.30 236.66 697.20
  Q 236.91 697.09 236.91 696.81
  Q 237.07 627.11 237.27 557.40
  Q 237.27 557.23 237.22 557.10
  Q 237.04 556.71 236.89 556.96
  Q 237.42 556.71 237.42 556.25
  Q 237.37 542.01 236.88 527.25
  L 334.99 495.81
  Z"
/>
<path fill="#ee5051" d="
  M 236.89 556.96
  Q 237.04 556.71 237.22 557.10
  Q 237.27 557.23 237.27 557.40
  Q 237.07 627.11 236.91 696.81
  Q 236.91 697.09 236.66 697.20
  Q 236.44 697.30 236.44 697.48
  Q 204.74 691.26 174.14 681.09
  C 149.35 672.85 131.42 661.77 116.31 639.22
  C 106.41 624.45 110.84 613.10 121.38 601.13
  C 141.97 577.74 170.50 561.89 198.80 550.81
  C 204.40 548.62 209.62 548.71 215.78 550.55
  Q 226.37 553.73 236.89 556.96
  Z"
/>
<path fill="#ee5051" d="
  M 335.24 591.79
  Q 362.69 599.08 389.19 609.13
  C 420.53 621.02 452.30 641.17 461.00 675.25
  C 465.46 692.72 466.21 711.28 466.24 729.42
  C 466.29 760.09 466.31 790.67 465.36 821.32
  A 0.17 0.17 0.0 0 1 465.03 821.35
  C 457.67 790.50 428.85 770.41 402.16 757.37
  Q 369.95 741.63 335.48 731.44
  Q 335.18 731.74 335.18 731.06
  Q 334.90 661.78 335.02 592.50
  Q 334.62 592.35 335.24 591.79
  Z"
/>
</svg>
