<?xml version="1.0" encoding="UTF-8" standalone="no"?>
<!DOCTYPE svg PUBLIC "-//W3C//DTD SVG 1.1//EN" "http://www.w3.org/Graphics/SVG/1.1/DTD/svg11.dtd">
<svg xmlns="http://www.w3.org/2000/svg" version="1.1" viewBox="0.00 0.00 981.00 456.00">
<g stroke-width="2.00" fill="none" stroke-linecap="butt">
<path stroke="#9a9d9e" vector-effect="non-scaling-stroke" d="
  M 101.40 145.32
  L 46.16 145.48
  Q 45.56 145.48 45.78 146.03
  L 59.06 179.98
  Q 59.24 180.43 59.74 180.43
  L 124.04 180.42
  Q 124.78 180.42 124.78 181.16
  L 124.74 194.20"
/>
<path stroke="#99bdbe" vector-effect="non-scaling-stroke" d="
  M 124.74 194.20
  Q 124.31 194.80 123.94 194.90
  C 109.07 198.83 93.43 201.62 83.15 213.69"
/>
<path stroke="#eb9fa1" vector-effect="non-scaling-stroke" d="
  M 83.15 213.69
  Q 79.19 218.69 79.15 223.00
  Q 78.92 248.38 78.68 274.06
  A 0.30 0.30 0.0 0 0 79.26 274.16
  C 82.32 265.53 91.40 259.59 99.00 255.08"
/>
<path stroke="#99bdbe" vector-effect="non-scaling-stroke" d="
  M 99.00 255.08
  Q 111.17 248.93 124.75 245.30"
/>
<path stroke="#9a9d9e" vector-effect="non-scaling-stroke" d="
  M 124.75 245.30
  L 124.80 255.76"
/>
<path stroke="#eb9fa1" vector-effect="non-scaling-stroke" d="
  M 124.80 255.76
  Q 120.66 254.51 116.83 253.34
  C 113.28 252.25 110.59 253.71 107.37 255.15
  C 97.57 259.55 88.64 264.80 82.11 273.14
  Q 77.65 278.83 81.39 284.83
  Q 87.13 294.03 97.25 298.27
  Q 107.00 302.35 124.70 306.08"
/>
<path stroke="#9a9d9e" vector-effect="non-scaling-stroke" d="
  M 124.70 306.08
  L 124.73 337.63
  Q 124.73 338.12 125.20 338.28
  L 159.09 349.47
  Q 159.75 349.68 159.75 348.99
  L 159.75 318.05"
/>
<path stroke="#eb9fa1" vector-effect="non-scaling-stroke" d="
  M 159.75 318.05
  C 175.06 322.95 201.53 332.03 205.83 349.68
  Q 206.16 351.05 206.21 349.64
  Q 206.78 331.38 206.45 313.25
  Q 206.28 303.73 204.54 297.49
  C 199.36 278.78 176.07 272.96 159.73 268.09"
/>
<path stroke="#9a9d9e" vector-effect="non-scaling-stroke" d="
  M 159.73 268.09
  L 159.72 234.29"
/>
<path stroke="#99bdbe" vector-effect="non-scaling-stroke" d="
  M 159.72 234.29
  C 160.10 233.95 160.62 233.46 161.13 233.32
  C 176.77 229.04 192.53 224.23 202.69 210.53
  A 0.57 0.57 0.0 0 0 202.05 209.65
  L 110.68 239.71"
/>
<path stroke="#eb9fa1" vector-effect="non-scaling-stroke" d="
  M 110.68 239.71
  L 120.72 227.34"
/>
<path stroke="#99bdbe" vector-effect="non-scaling-stroke" d="
  M 120.72 227.34
  L 205.96 199.33
  Q 206.47 199.16 206.52 198.63
  L 207.63 186.36
  A 0.40 0.39 -6.4 0 0 207.11 185.95
  L 111.56 217.42"
/>
<path stroke="#eb9fa1" vector-effect="non-scaling-stroke" d="
  M 111.56 217.42
  Q 102.49 216.56 93.52 214.24"
/>
<path stroke="#99bdbe" vector-effect="non-scaling-stroke" d="
  M 93.52 214.24
  L 194.06 181.03"
/>
<path stroke="#9a9d9e" vector-effect="non-scaling-stroke" d="
  M 194.06 181.03
  L 243.25 180.50
  A 0.57 0.56 -10.9 0 0 243.78 179.73
  L 230.69 146.06
  A 0.98 0.97 -10.5 0 0 229.78 145.44
  L 205.61 145.40"
/>
<path stroke="#eb9fa1" vector-effect="non-scaling-stroke" d="
  M 205.61 145.40
  C 204.06 134.89 192.02 126.30 182.71 122.75
  Q 169.30 117.65 159.74 114.43"
/>
<path stroke="#9a9d9e" vector-effect="non-scaling-stroke" d="
  M 159.74 114.43
  L 159.77 85.17
  A 0.89 0.88 9.9 0 0 159.18 84.34
  L 125.43 72.52
  Q 124.78 72.29 124.78 72.98
  L 124.72 101.11"
/>
<path stroke="#eb9fa1" vector-effect="non-scaling-stroke" d="
  M 124.72 101.11
  Q 119.00 99.65 113.68 97.38
  C 102.32 92.53 86.90 83.49 81.93 71.51
  A 0.16 0.16 0.0 0 0 81.62 71.57
  Q 81.52 97.07 81.28 122.43
  C 81.20 129.90 84.45 135.36 90.55 139.42
  Q 95.24 142.53 101.40 145.32"
/>
<path stroke="#9d4e4f" vector-effect="non-scaling-stroke" d="
  M 124.72 101.11
  L 124.59 144.78
  Q 124.59 145.38 123.98 145.38
  L 101.40 145.32"
/>
<path stroke="#9d4e4f" vector-effect="non-scaling-stroke" d="
  M 159.74 114.43
  L 159.73 144.74
  A 0.68 0.68 0.0 0 0 160.41 145.42
  L 205.61 145.40"
/>
<path stroke="#4b6c6c" vector-effect="non-scaling-stroke" d="
  M 194.06 181.03
  Q 191.74 180.83 189.75 180.51
  Q 187.33 180.13 185.46 180.18
  Q 177.10 180.40 169.18 180.70"
/>
<path stroke="#9a9d9e" vector-effect="non-scaling-stroke" d="
  M 169.18 180.70
  L 160.52 180.61
  Q 159.98 180.60 159.77 181.10
  Q 159.48 181.80 159.63 182.78"
/>
<path stroke="#4b6c6c" vector-effect="non-scaling-stroke" d="
  M 159.63 182.78
  L 159.57 183.42
  Q 159.52 183.96 159.00 184.13
  Q 142.29 189.42 125.48 194.39
  Q 124.97 194.54 124.74 194.20"
/>
<path stroke="#9c6e6f" vector-effect="non-scaling-stroke" d="
  M 93.52 214.24
  L 83.15 213.69"
/>
<path stroke="#99bdbe" vector-effect="non-scaling-stroke" d="
  M 159.63 182.78
  L 159.71 183.07
  Q 159.80 183.43 160.15 183.32
  L 169.18 180.70"
/>
<path stroke="#4b6c6c" vector-effect="non-scaling-stroke" d="
  M 159.72 234.29
  Q 159.59 234.25 159.48 234.21
  Q 159.24 234.12 159.01 234.20
  L 124.75 245.30"
/>
<path stroke="#9c6e6f" vector-effect="non-scaling-stroke" d="
  M 99.00 255.08
  Q 98.51 255.08 98.40 254.99
  A 1.00 0.98 -49.1 0 1 98.31 253.57
  L 110.68 239.71"
/>
<path stroke="#9c6e6f" vector-effect="non-scaling-stroke" d="
  M 120.72 227.34
  Q 121.34 224.57 125.12 222.17
  A 1.41 1.40 -59.0 0 0 124.48 219.58
  L 113.04 218.69
  A 1.03 1.02 71.7 0 1 112.33 218.33
  L 111.56 217.42"
/>
<path stroke="#9d4e4f" vector-effect="non-scaling-stroke" d="
  M 159.73 268.09
  L 159.75 318.05"
/>
<path stroke="#9d4e4f" vector-effect="non-scaling-stroke" d="
  M 124.70 306.08
  L 124.80 255.76"
/>
<path stroke="#9a9d9e" vector-effect="non-scaling-stroke" d="
  M 303.01 108.11
  C 316.45 102.80 330.54 108.56 338.91 119.77
  A 0.70 0.69 -37.2 0 0 339.89 119.90
  L 364.14 101.12
  A 0.46 0.46 0.0 0 0 364.23 100.47
  Q 348.08 78.38 320.51 75.98
  C 287.57 73.10 257.97 92.40 251.38 125.63
  C 243.82 163.72 269.47 198.18 308.49 200.68
  C 331.23 202.13 351.88 193.24 364.88 173.95
  Q 365.17 173.52 364.75 173.23
  L 340.69 156.08
  A 0.60 0.59 -52.4 0 0 339.87 156.19
  C 334.20 163.36 327.48 168.45 318.27 170.02
  C 281.82 176.21 271.99 120.38 303.01 108.11"
/>
<path stroke="#9a9d9e" vector-effect="non-scaling-stroke" d="
  M 666.33 177.16
  A 0.50 0.50 0.0 0 1 666.80 176.85
  L 712.44 176.86
  A 0.50 0.50 0.0 0 1 712.91 177.17
  L 721.40 198.06
  A 0.50 0.50 0.0 0 0 721.87 198.37
  L 756.53 198.38
  A 0.50 0.50 0.0 0 0 756.99 197.69
  L 706.25 77.63
  A 0.50 0.50 0.0 0 0 705.79 77.32
  L 674.33 77.32
  A 0.50 0.50 0.0 0 0 673.87 77.63
  L 623.12 197.68
  A 0.50 0.50 0.0 0 0 623.58 198.38
  L 657.55 198.35
  A 0.50 0.50 0.0 0 0 658.02 198.04
  L 666.33 177.16"
/>
<path stroke="#eb9fa1" vector-effect="non-scaling-stroke" d="
  M 850.45 175.00
  A 0.59 0.59 0.0 0 1 851.04 175.59
  L 851.13 197.82
  A 0.59 0.59 0.0 0 0 851.72 198.41
  L 882.75 198.33
  A 0.59 0.59 0.0 0 0 883.34 197.74
  L 883.44 175.56
  A 0.59 0.59 0.0 0 1 884.03 174.98
  L 898.11 175.15
  A 0.59 0.59 0.0 0 0 898.71 174.56
  L 898.75 150.67
  A 0.59 0.59 0.0 0 0 898.15 150.08
  L 884.03 150.21
  A 0.59 0.59 0.0 0 1 883.43 149.62
  L 883.44 77.91
  A 0.59 0.59 0.0 0 0 882.85 77.32
  L 850.03 77.27
  A 0.59 0.59 0.0 0 0 849.57 77.48
  L 787.62 151.23
  A 0.59 0.59 0.0 0 0 787.50 151.75
  L 792.83 174.63
  A 0.59 0.59 0.0 0 0 793.41 175.09
  L 850.45 175.00"
/>
<path stroke="#9a9d9e" vector-effect="non-scaling-stroke" d="
  M 398.32 191.52
  C 412.03 200.58 431.99 202.31 448.10 199.44
  C 475.82 194.51 489.82 175.19 489.91 146.99
  Q 490.01 112.90 489.96 78.72
  Q 489.96 78.23 489.47 78.23
  L 456.73 78.22
  Q 456.13 78.22 456.13 78.83
  Q 456.31 133.46 456.07 148.23
  C 455.79 165.64 441.11 174.49 425.70 169.25
  C 415.50 165.78 411.89 156.01 411.91 144.99
  Q 411.97 111.94 411.87 78.82
  Q 411.87 78.21 411.26 78.21
  L 378.53 78.23
  Q 378.04 78.23 378.04 78.72
  Q 377.93 110.37 378.05 142.00
  C 378.12 160.94 381.21 180.22 398.32 191.52"
/>
<path stroke="#9a9d9e" vector-effect="non-scaling-stroke" d="
  M 594.28 135.04
  C 606.09 129.96 612.48 119.77 611.87 106.93
  C 610.98 88.22 593.14 78.31 576.00 78.27
  Q 542.98 78.19 510.01 78.24
  A 0.27 0.27 0.0 0 0 509.74 78.51
  L 509.73 197.75
  Q 509.73 198.29 510.27 198.29
  Q 540.51 198.44 570.75 198.53
  C 591.27 198.59 616.35 191.49 617.20 166.49
  Q 617.89 145.99 599.45 138.01
  Q 596.88 136.90 594.28 135.76
  Q 593.46 135.39 594.28 135.04"
/>
<path stroke="#9a9d9e" vector-effect="non-scaling-stroke" d="
  M 252.20 293.75
  C 255.88 325.96 281.23 348.32 314.00 348.63
  Q 347.53 348.94 366.70 322.01
  A 0.59 0.59 0.0 0 0 366.56 321.19
  L 342.46 304.01
  Q 342.05 303.72 341.71 304.09
  C 336.45 309.72 332.27 314.26 324.80 316.75
  C 312.45 320.89 298.73 316.75 291.66 305.60
  C 280.58 288.13 286.42 260.64 307.86 255.08
  C 321.80 251.46 331.91 257.64 340.79 267.64
  Q 341.20 268.10 341.69 267.72
  L 365.83 249.05
  A 0.54 0.53 53.0 0 0 365.93 248.30
  Q 348.44 224.75 318.74 223.80
  Q 296.37 223.08 279.22 234.23
  C 259.50 247.06 249.53 270.45 252.20 293.75"
/>
<path stroke="#9a9d9e" vector-effect="non-scaling-stroke" d="
  M 737.00 251.76
  C 747.85 252.80 757.98 257.01 766.86 263.19
  A 0.65 0.65 0.0 0 0 767.76 263.03
  L 783.72 240.47
  Q 784.04 240.01 783.60 239.67
  C 767.11 226.57 745.98 222.29 725.30 224.67
  C 703.45 227.19 686.24 242.57 688.19 265.78
  C 690.80 296.96 725.50 296.51 747.59 304.85
  Q 755.05 307.66 753.24 314.40
  C 751.39 321.31 739.97 321.07 734.50 320.44
  Q 715.79 318.29 701.45 306.56
  A 0.59 0.59 0.0 0 0 700.62 306.63
  L 682.84 327.88
  Q 682.46 328.34 682.89 328.75
  C 700.67 345.55 729.55 350.88 752.77 347.09
  C 775.06 343.45 790.75 325.91 786.74 302.69
  C 783.75 285.38 768.11 277.78 752.58 273.93
  Q 741.89 271.28 731.30 268.29
  C 725.60 266.68 720.02 263.88 722.07 257.52
  C 723.93 251.78 732.04 251.29 737.00 251.76"
/>
<path stroke="#9a9d9e" vector-effect="non-scaling-stroke" d="
  M 457.33 270.58
  A 0.51 0.51 0.0 0 1 456.82 271.09
  L 415.06 271.15
  A 0.51 0.51 0.0 0 1 414.55 270.64
  L 414.57 226.52
  A 0.51 0.51 0.0 0 0 414.06 226.01
  L 381.77 226.02
  A 0.51 0.51 0.0 0 0 381.26 226.53
  L 381.26 345.75
  A 0.51 0.51 0.0 0 0 381.77 346.26
  L 414.06 346.25
  A 0.51 0.51 0.0 0 0 414.57 345.74
  L 414.60 301.08
  A 0.51 0.51 0.0 0 1 415.11 300.57
  L 456.84 300.54
  A 0.51 0.51 0.0 0 1 457.35 301.05
  L 457.30 345.75
  A 0.51 0.51 0.0 0 0 457.81 346.26
  L 490.14 346.25
  A 0.51 0.51 0.0 0 0 490.65 345.74
  L 490.68 226.52
  A 0.51 0.51 0.0 0 0 490.17 226.01
  L 457.83 226.01
  A 0.51 0.51 0.0 0 0 457.32 226.52
  L 457.33 270.58"
/>
<path stroke="#9a9d9e" vector-effect="non-scaling-stroke" d="
  M 545.84 309.82
  L 559.29 309.81
  A 0.92 0.91 -16.3 0 1 560.06 310.23
  L 583.61 345.66
  A 1.38 1.37 72.9 0 0 584.75 346.27
  L 621.54 346.26
  Q 622.51 346.26 621.96 345.46
  L 594.26 304.97
  Q 593.92 304.47 594.46 304.20
  Q 600.01 301.41 603.17 299.17
  C 616.63 289.64 620.98 272.73 617.41 256.50
  C 612.58 234.47 591.30 226.27 570.97 226.08
  Q 546.53 225.86 512.38 226.08
  Q 511.93 226.09 511.93 226.54
  L 511.91 345.59
  Q 511.91 346.26 512.59 346.26
  L 544.75 346.24
  Q 545.25 346.24 545.25 345.75
  L 545.25 310.41
  A 0.59 0.59 0.0 0 1 545.84 309.82"
/>
<path stroke="#9a9d9e" vector-effect="non-scaling-stroke" d="
  M 669.53 226.46
  A 0.44 0.44 0.0 0 0 669.09 226.02
  L 636.45 226.02
  A 0.44 0.44 0.0 0 0 636.01 226.46
  L 636.01 345.82
  A 0.44 0.44 0.0 0 0 636.45 346.26
  L 669.09 346.26
  A 0.44 0.44 0.0 0 0 669.53 345.82
  L 669.53 226.46"
/>
<path stroke="#9a9d9e" vector-effect="non-scaling-stroke" d="
  M 862.69 255.75
  A 0.50 0.50 0.0 0 1 863.19 255.25
  L 898.24 255.27
  A 0.50 0.50 0.0 0 0 898.74 254.77
  L 898.71 226.51
  A 0.50 0.50 0.0 0 0 898.21 226.01
  L 793.85 226.01
  A 0.50 0.50 0.0 0 0 793.35 226.51
  L 793.31 254.79
  A 0.50 0.50 0.0 0 0 793.81 255.29
  L 828.84 255.24
  A 0.50 0.50 0.0 0 1 829.34 255.74
  L 829.33 345.75
  A 0.50 0.50 0.0 0 0 829.83 346.25
  L 862.18 346.25
  A 0.50 0.50 0.0 0 0 862.68 345.75
  L 862.69 255.75"
/>
<path stroke="#9a9d9e" vector-effect="non-scaling-stroke" d="
  M 676.44 150.52
  A 0.36 0.36 0.0 0 0 676.77 151.01
  L 702.67 151.06
  A 0.36 0.36 0.0 0 0 703.00 150.57
  L 690.11 117.70
  A 0.36 0.36 0.0 0 0 689.44 117.70
  L 676.44 150.52"
/>
<path stroke="#eb9fa1" vector-effect="non-scaling-stroke" d="
  M 850.71 150.29
  A 0.37 0.37 0.0 0 0 851.08 149.92
  L 851.19 116.75
  A 0.37 0.37 0.0 0 0 850.53 116.51
  L 823.01 149.68
  A 0.37 0.37 0.0 0 0 823.30 150.29
  L 850.71 150.29"
/>
<path stroke="#9a9d9e" vector-effect="non-scaling-stroke" d="
  M 542.26 105.28
  L 542.22 125.72
  A 0.34 0.34 0.0 0 0 542.56 126.06
  L 565.73 126.10
  A 13.13 9.62 0.1 0 0 578.88 116.50
  L 578.88 114.62
  A 13.13 9.62 0.1 0 0 565.77 104.98
  L 542.60 104.94
  A 0.34 0.34 0.0 0 0 542.26 105.28"
/>
<path stroke="#9a9d9e" vector-effect="non-scaling-stroke" d="
  M 542.25 150.11
  L 542.25 170.91
  A 0.61 0.61 0.0 0 0 542.86 171.52
  L 570.23 171.52
  A 13.56 9.96 0.0 0 0 583.79 161.56
  L 583.79 159.46
  A 13.56 9.96 -0.0 0 0 570.23 149.50
  L 542.86 149.50
  A 0.61 0.61 0.0 0 0 542.25 150.11"
/>
<path stroke="#eb9fa1" vector-effect="non-scaling-stroke" d="
  M 99.53 227.33
  A 0.34 0.34 0.0 0 1 99.14 227.22
  L 96.26 223.50
  A 0.34 0.34 0.0 0 0 95.65 223.72
  L 95.85 228.43
  A 0.34 0.34 0.0 0 1 95.62 228.76
  L 91.19 230.35
  A 0.34 0.34 0.0 0 0 91.21 231.00
  L 95.75 232.26
  A 0.34 0.34 0.0 0 1 96.00 232.58
  L 96.14 237.29
  A 0.34 0.34 0.0 0 0 96.77 237.46
  L 99.37 233.54
  A 0.34 0.34 0.0 0 1 99.75 233.40
  L 104.27 234.72
  A 0.34 0.34 0.0 0 0 104.63 234.18
  L 101.70 230.49
  A 0.34 0.34 0.0 0 1 101.69 230.09
  L 104.34 226.20
  A 0.34 0.34 0.0 0 0 103.94 225.69
  L 99.53 227.33"
/>
<path stroke="#9a9d9e" vector-effect="non-scaling-stroke" d="
  M 545.22 255.46
  L 545.26 283.22
  A 0.53 0.53 0.0 0 0 545.80 283.75
  L 569.43 283.71
  A 15.66 13.44 -0.1 0 0 585.06 270.25
  L 585.06 268.31
  A 15.66 13.44 -0.1 0 0 569.37 254.89
  L 545.74 254.93
  A 0.53 0.53 0.0 0 0 545.22 255.46"
/>
</g>
<path fill="#e8edf0" d="
  M 0.00 0.00
  L 981.00 0.00
  L 981.00 456.00
  L 0.00 456.00
  L 0.00 0.00
  Z
  M 101.40 145.32
  L 46.16 145.48
  Q 45.56 145.48 45.78 146.03
  L 59.06 179.98
  Q 59.24 180.43 59.74 180.43
  L 124.04 180.42
  Q 124.78 180.42 124.78 181.16
  L 124.74 194.20
  Q 124.31 194.80 123.94 194.90
  C 109.07 198.83 93.43 201.62 83.15 213.69
  Q 79.19 218.69 79.15 223.00
  Q 78.92 248.38 78.68 274.06
  A 0.30 0.30 0.0 0 0 79.26 274.16
  C 82.32 265.53 91.40 259.59 99.00 255.08
  Q 111.17 248.93 124.75 245.30
  L 124.80 255.76
  Q 120.66 254.51 116.83 253.34
  C 113.28 252.25 110.59 253.71 107.37 255.15
  C 97.57 259.55 88.64 264.80 82.11 273.14
  Q 77.65 278.83 81.39 284.83
  Q 87.13 294.03 97.25 298.27
  Q 107.00 302.35 124.70 306.08
  L 124.73 337.63
  Q 124.73 338.12 125.20 338.28
  L 159.09 349.47
  Q 159.75 349.68 159.75 348.99
  L 159.75 318.05
  C 175.06 322.95 201.53 332.03 205.83 349.68
  Q 206.16 351.05 206.21 349.64
  Q 206.78 331.38 206.45 313.25
  Q 206.28 303.73 204.54 297.49
  C 199.36 278.78 176.07 272.96 159.73 268.09
  L 159.72 234.29
  C 160.10 233.95 160.62 233.46 161.13 233.32
  C 176.77 229.04 192.53 224.23 202.69 210.53
  A 0.57 0.57 0.0 0 0 202.05 209.65
  L 110.68 239.71
  L 120.72 227.34
  L 205.96 199.33
  Q 206.47 199.16 206.52 198.63
  L 207.63 186.36
  A 0.40 0.39 -6.4 0 0 207.11 185.95
  L 111.56 217.42
  Q 102.49 216.56 93.52 214.24
  L 194.06 181.03
  L 243.25 180.50
  A 0.57 0.56 -10.9 0 0 243.78 179.73
  L 230.69 146.06
  A 0.98 0.97 -10.5 0 0 229.78 145.44
  L 205.61 145.40
  C 204.06 134.89 192.02 126.30 182.71 122.75
  Q 169.30 117.65 159.74 114.43
  L 159.77 85.17
  A 0.89 0.88 9.9 0 0 159.18 84.34
  L 125.43 72.52
  Q 124.78 72.29 124.78 72.98
  L 124.72 101.11
  Q 119.00 99.65 113.68 97.38
  C 102.32 92.53 86.90 83.49 81.93 71.51
  A 0.16 0.16 0.0 0 0 81.62 71.57
  Q 81.52 97.07 81.28 122.43
  C 81.20 129.90 84.45 135.36 90.55 139.42
  Q 95.24 142.53 101.40 145.32
  Z
  M 303.01 108.11
  C 316.45 102.80 330.54 108.56 338.91 119.77
  A 0.70 0.69 -37.2 0 0 339.89 119.90
  L 364.14 101.12
  A 0.46 0.46 0.0 0 0 364.23 100.47
  Q 348.08 78.38 320.51 75.98
  C 287.57 73.10 257.97 92.40 251.38 125.63
  C 243.82 163.72 269.47 198.18 308.49 200.68
  C 331.23 202.13 351.88 193.24 364.88 173.95
  Q 365.17 173.52 364.75 173.23
  L 340.69 156.08
  A 0.60 0.59 -52.4 0 0 339.87 156.19
  C 334.20 163.36 327.48 168.45 318.27 170.02
  C 281.82 176.21 271.99 120.38 303.01 108.11
  Z
  M 666.33 177.16
  A 0.50 0.50 0.0 0 1 666.80 176.85
  L 712.44 176.86
  A 0.50 0.50 0.0 0 1 712.91 177.17
  L 721.40 198.06
  A 0.50 0.50 0.0 0 0 721.87 198.37
  L 756.53 198.38
  A 0.50 0.50 0.0 0 0 756.99 197.69
  L 706.25 77.63
  A 0.50 0.50 0.0 0 0 705.79 77.32
  L 674.33 77.32
  A 0.50 0.50 0.0 0 0 673.87 77.63
  L 623.12 197.68
  A 0.50 0.50 0.0 0 0 623.58 198.38
  L 657.55 198.35
  A 0.50 0.50 0.0 0 0 658.02 198.04
  L 666.33 177.16
  Z
  M 850.45 175.00
  A 0.59 0.59 0.0 0 1 851.04 175.59
  L 851.13 197.82
  A 0.59 0.59 0.0 0 0 851.72 198.41
  L 882.75 198.33
  A 0.59 0.59 0.0 0 0 883.34 197.74
  L 883.44 175.56
  A 0.59 0.59 0.0 0 1 884.03 174.98
  L 898.11 175.15
  A 0.59 0.59 0.0 0 0 898.71 174.56
  L 898.75 150.67
  A 0.59 0.59 0.0 0 0 898.15 150.08
  L 884.03 150.21
  A 0.59 0.59 0.0 0 1 883.43 149.62
  L 883.44 77.91
  A 0.59 0.59 0.0 0 0 882.85 77.32
  L 850.03 77.27
  A 0.59 0.59 0.0 0 0 849.57 77.48
  L 787.62 151.23
  A 0.59 0.59 0.0 0 0 787.50 151.75
  L 792.83 174.63
  A 0.59 0.59 0.0 0 0 793.41 175.09
  L 850.45 175.00
  Z
  M 398.32 191.52
  C 412.03 200.58 431.99 202.31 448.10 199.44
  C 475.82 194.51 489.82 175.19 489.91 146.99
  Q 490.01 112.90 489.96 78.72
  Q 489.96 78.23 489.47 78.23
  L 456.73 78.22
  Q 456.13 78.22 456.13 78.83
  Q 456.31 133.46 456.07 148.23
  C 455.79 165.64 441.11 174.49 425.70 169.25
  C 415.50 165.78 411.89 156.01 411.91 144.99
  Q 411.97 111.94 411.87 78.82
  Q 411.87 78.21 411.26 78.21
  L 378.53 78.23
  Q 378.04 78.23 378.04 78.72
  Q 377.93 110.37 378.05 142.00
  C 378.12 160.94 381.21 180.22 398.32 191.52
  Z
  M 594.28 135.04
  C 606.09 129.96 612.48 119.77 611.87 106.93
  C 610.98 88.22 593.14 78.31 576.00 78.27
  Q 542.98 78.19 510.01 78.24
  A 0.27 0.27 0.0 0 0 509.74 78.51
  L 509.73 197.75
  Q 509.73 198.29 510.27 198.29
  Q 540.51 198.44 570.75 198.53
  C 591.27 198.59 616.35 191.49 617.20 166.49
  Q 617.89 145.99 599.45 138.01
  Q 596.88 136.90 594.28 135.76
  Q 593.46 135.39 594.28 135.04
  Z
  M 252.20 293.75
  C 255.88 325.96 281.23 348.32 314.00 348.63
  Q 347.53 348.94 366.70 322.01
  A 0.59 0.59 0.0 0 0 366.56 321.19
  L 342.46 304.01
  Q 342.05 303.72 341.71 304.09
  C 336.45 309.72 332.27 314.26 324.80 316.75
  C 312.45 320.89 298.73 316.75 291.66 305.60
  C 280.58 288.13 286.42 260.64 307.86 255.08
  C 321.80 251.46 331.91 257.64 340.79 267.64
  Q 341.20 268.10 341.69 267.72
  L 365.83 249.05
  A 0.54 0.53 53.0 0 0 365.93 248.30
  Q 348.44 224.75 318.74 223.80
  Q 296.37 223.08 279.22 234.23
  C 259.50 247.06 249.53 270.45 252.20 293.75
  Z
  M 737.00 251.76
  C 747.85 252.80 757.98 257.01 766.86 263.19
  A 0.65 0.65 0.0 0 0 767.76 263.03
  L 783.72 240.47
  Q 784.04 240.01 783.60 239.67
  C 767.11 226.57 745.98 222.29 725.30 224.67
  C 703.45 227.19 686.24 242.57 688.19 265.78
  C 690.80 296.96 725.50 296.51 747.59 304.85
  Q 755.05 307.66 753.24 314.40
  C 751.39 321.31 739.97 321.07 734.50 320.44
  Q 715.79 318.29 701.45 306.56
  A 0.59 0.59 0.0 0 0 700.62 306.63
  L 682.84 327.88
  Q 682.46 328.34 682.89 328.75
  C 700.67 345.55 729.55 350.88 752.77 347.09
  C 775.06 343.45 790.75 325.91 786.74 302.69
  C 783.75 285.38 768.11 277.78 752.58 273.93
  Q 741.89 271.28 731.30 268.29
  C 725.60 266.68 720.02 263.88 722.07 257.52
  C 723.93 251.78 732.04 251.29 737.00 251.76
  Z
  M 457.33 270.58
  A 0.51 0.51 0.0 0 1 456.82 271.09
  L 415.06 271.15
  A 0.51 0.51 0.0 0 1 414.55 270.64
  L 414.57 226.52
  A 0.51 0.51 0.0 0 0 414.06 226.01
  L 381.77 226.02
  A 0.51 0.51 0.0 0 0 381.26 226.53
  L 381.26 345.75
  A 0.51 0.51 0.0 0 0 381.77 346.26
  L 414.06 346.25
  A 0.51 0.51 0.0 0 0 414.57 345.74
  L 414.60 301.08
  A 0.51 0.51 0.0 0 1 415.11 300.57
  L 456.84 300.54
  A 0.51 0.51 0.0 0 1 457.35 301.05
  L 457.30 345.75
  A 0.51 0.51 0.0 0 0 457.81 346.26
  L 490.14 346.25
  A 0.51 0.51 0.0 0 0 490.65 345.74
  L 490.68 226.52
  A 0.51 0.51 0.0 0 0 490.17 226.01
  L 457.83 226.01
  A 0.51 0.51 0.0 0 0 457.32 226.52
  L 457.33 270.58
  Z
  M 545.84 309.82
  L 559.29 309.81
  A 0.92 0.91 -16.3 0 1 560.06 310.23
  L 583.61 345.66
  A 1.38 1.37 72.9 0 0 584.75 346.27
  L 621.54 346.26
  Q 622.51 346.26 621.96 345.46
  L 594.26 304.97
  Q 593.92 304.47 594.46 304.20
  Q 600.01 301.41 603.17 299.17
  C 616.63 289.64 620.98 272.73 617.41 256.50
  C 612.58 234.47 591.30 226.27 570.97 226.08
  Q 546.53 225.86 512.38 226.08
  Q 511.93 226.09 511.93 226.54
  L 511.91 345.59
  Q 511.91 346.26 512.59 346.26
  L 544.75 346.24
  Q 545.25 346.24 545.25 345.75
  L 545.25 310.41
  A 0.59 0.59 0.0 0 1 545.84 309.82
  Z
  M 669.53 226.46
  A 0.44 0.44 0.0 0 0 669.09 226.02
  L 636.45 226.02
  A 0.44 0.44 0.0 0 0 636.01 226.46
  L 636.01 345.82
  A 0.44 0.44 0.0 0 0 636.45 346.26
  L 669.09 346.26
  A 0.44 0.44 0.0 0 0 669.53 345.82
  L 669.53 226.46
  Z
  M 862.69 255.75
  A 0.50 0.50 0.0 0 1 863.19 255.25
  L 898.24 255.27
  A 0.50 0.50 0.0 0 0 898.74 254.77
  L 898.71 226.51
  A 0.50 0.50 0.0 0 0 898.21 226.01
  L 793.85 226.01
  A 0.50 0.50 0.0 0 0 793.35 226.51
  L 793.31 254.79
  A 0.50 0.50 0.0 0 0 793.81 255.29
  L 828.84 255.24
  A 0.50 0.50 0.0 0 1 829.34 255.74
  L 829.33 345.75
  A 0.50 0.50 0.0 0 0 829.83 346.25
  L 862.18 346.25
  A 0.50 0.50 0.0 0 0 862.68 345.75
  L 862.69 255.75
  Z"
/>
<path fill="#ee5051" d="
  M 124.72 101.11
  L 124.59 144.78
  Q 124.59 145.38 123.98 145.38
  L 101.40 145.32
  Q 95.24 142.53 90.55 139.42
  C 84.45 135.36 81.20 129.90 81.28 122.43
  Q 81.52 97.07 81.62 71.57
  A 0.16 0.16 0.0 0 1 81.93 71.51
  C 86.90 83.49 102.32 92.53 113.68 97.38
  Q 119.00 99.65 124.72 101.11
  Z"
/>
<path fill="#4c4c4c" d="
  M 159.74 114.43
  L 159.73 144.74
  A 0.68 0.68 0.0 0 0 160.41 145.42
  L 205.61 145.40
  L 229.78 145.44
  A 0.98 0.97 -10.5 0 1 230.69 146.06
  L 243.78 179.73
  A 0.57 0.56 -10.9 0 1 243.25 180.50
  L 194.06 181.03
  Q 191.74 180.83 189.75 180.51
  Q 187.33 180.13 185.46 180.18
  Q 177.10 180.40 169.18 180.70
  L 160.52 180.61
  Q 159.98 180.60 159.77 181.10
  Q 159.48 181.80 159.63 182.78
  L 159.57 183.42
  Q 159.52 183.96 159.00 184.13
  Q 142.29 189.42 125.48 194.39
  Q 124.97 194.54 124.74 194.20
  L 124.78 181.16
  Q 124.78 180.42 124.04 180.42
  L 59.74 180.43
  Q 59.24 180.43 59.06 179.98
  L 45.78 146.03
  Q 45.56 145.48 46.16 145.48
  L 101.40 145.32
  L 123.98 145.38
  Q 124.59 145.38 124.59 144.78
  L 124.72 101.11
  L 124.78 72.98
  Q 124.78 72.29 125.43 72.52
  L 159.18 84.34
  A 0.89 0.88 9.9 0 1 159.77 85.17
  L 159.74 114.43
  Z"
/>
<path fill="#4c4c4c" d="
  M 338.91 119.77
  C 330.54 108.56 316.45 102.80 303.01 108.11
  C 271.99 120.38 281.82 176.21 318.27 170.02
  C 327.48 168.45 334.20 163.36 339.87 156.19
  A 0.60 0.59 -52.4 0 1 340.69 156.08
  L 364.75 173.23
  Q 365.17 173.52 364.88 173.95
  C 351.88 193.24 331.23 202.13 308.49 200.68
  C 269.47 198.18 243.82 163.72 251.38 125.63
  C 257.97 92.40 287.57 73.10 320.51 75.98
  Q 348.08 78.38 364.23 100.47
  A 0.46 0.46 0.0 0 1 364.14 101.12
  L 339.89 119.90
  A 0.70 0.69 -37.2 0 1 338.91 119.77
  Z"
/>
<path fill="#4c4c4c" d="
  M 666.33 177.16
  L 658.02 198.04
  A 0.50 0.50 0.0 0 1 657.55 198.35
  L 623.58 198.38
  A 0.50 0.50 0.0 0 1 623.12 197.68
  L 673.87 77.63
  A 0.50 0.50 0.0 0 1 674.33 77.32
  L 705.79 77.32
  A 0.50 0.50 0.0 0 1 706.25 77.63
  L 756.99 197.69
  A 0.50 0.50 0.0 0 1 756.53 198.38
  L 721.87 198.37
  A 0.50 0.50 0.0 0 1 721.40 198.06
  L 712.91 177.17
  A 0.50 0.50 0.0 0 0 712.44 176.86
  L 666.80 176.85
  A 0.50 0.50 0.0 0 0 666.33 177.16
  Z
  M 676.44 150.52
  A 0.36 0.36 0.0 0 0 676.77 151.01
  L 702.67 151.06
  A 0.36 0.36 0.0 0 0 703.00 150.57
  L 690.11 117.70
  A 0.36 0.36 0.0 0 0 689.44 117.70
  L 676.44 150.52
  Z"
/>
<path fill="#ee5051" d="
  M 850.45 175.00
  L 793.41 175.09
  A 0.59 0.59 0.0 0 1 792.83 174.63
  L 787.50 151.75
  A 0.59 0.59 0.0 0 1 787.62 151.23
  L 849.57 77.48
  A 0.59 0.59 0.0 0 1 850.03 77.27
  L 882.85 77.32
  A 0.59 0.59 0.0 0 1 883.44 77.91
  L 883.43 149.62
  A 0.59 0.59 0.0 0 0 884.03 150.21
  L 898.15 150.08
  A 0.59 0.59 0.0 0 1 898.75 150.67
  L 898.71 174.56
  A 0.59 0.59 0.0 0 1 898.11 175.15
  L 884.03 174.98
  A 0.59 0.59 0.0 0 0 883.44 175.56
  L 883.34 197.74
  A 0.59 0.59 0.0 0 1 882.75 198.33
  L 851.72 198.41
  A 0.59 0.59 0.0 0 1 851.13 197.82
  L 851.04 175.59
  A 0.59 0.59 0.0 0 0 850.45 175.00
  Z
  M 850.71 150.29
  A 0.37 0.37 0.0 0 0 851.08 149.92
  L 851.19 116.75
  A 0.37 0.37 0.0 0 0 850.53 116.51
  L 823.01 149.68
  A 0.37 0.37 0.0 0 0 823.30 150.29
  L 850.71 150.29
  Z"
/>
<path fill="#4c4c4c" d="
  M 398.32 191.52
  C 381.21 180.22 378.12 160.94 378.05 142.00
  Q 377.93 110.37 378.04 78.72
  Q 378.04 78.23 378.53 78.23
  L 411.26 78.21
  Q 411.87 78.21 411.87 78.82
  Q 411.97 111.94 411.91 144.99
  C 411.89 156.01 415.50 165.78 425.70 169.25
  C 441.11 174.49 455.79 165.64 456.07 148.23
  Q 456.31 133.46 456.13 78.83
  Q 456.13 78.22 456.73 78.22
  L 489.47 78.23
  Q 489.96 78.23 489.96 78.72
  Q 490.01 112.90 489.91 146.99
  C 489.82 175.19 475.82 194.51 448.10 199.44
  C 431.99 202.31 412.03 200.58 398.32 191.52
  Z"
/>
<path fill="#4c4c4c" d="
  M 594.28 135.76
  Q 596.88 136.90 599.45 138.01
  Q 617.89 145.99 617.20 166.49
  C 616.35 191.49 591.27 198.59 570.75 198.53
  Q 540.51 198.44 510.27 198.29
  Q 509.73 198.29 509.73 197.75
  L 509.74 78.51
  A 0.27 0.27 0.0 0 1 510.01 78.24
  Q 542.98 78.19 576.00 78.27
  C 593.14 78.31 610.98 88.22 611.87 106.93
  C 612.48 119.77 606.09 129.96 594.28 135.04
  Q 593.46 135.39 594.28 135.76
  Z
  M 542.26 105.28
  L 542.22 125.72
  A 0.34 0.34 0.0 0 0 542.56 126.06
  L 565.73 126.10
  A 13.13 9.62 0.1 0 0 578.88 116.50
  L 578.88 114.62
  A 13.13 9.62 0.1 0 0 565.77 104.98
  L 542.60 104.94
  A 0.34 0.34 0.0 0 0 542.26 105.28
  Z
  M 542.25 150.11
  L 542.25 170.91
  A 0.61 0.61 0.0 0 0 542.86 171.52
  L 570.23 171.52
  A 13.56 9.96 0.0 0 0 583.79 161.56
  L 583.79 159.46
  A 13.56 9.96 -0.0 0 0 570.23 149.50
  L 542.86 149.50
  A 0.61 0.61 0.0 0 0 542.25 150.11
  Z"
/>
<path fill="#e8edf0" d="
  M 542.26 105.28
  A 0.34 0.34 0.0 0 1 542.60 104.94
  L 565.77 104.98
  A 13.13 9.62 0.1 0 1 578.88 114.62
  L 578.88 116.50
  A 13.13 9.62 0.1 0 1 565.73 126.10
  L 542.56 126.06
  A 0.34 0.34 0.0 0 1 542.22 125.72
  L 542.26 105.28
  Z"
/>
<path fill="#ee5051" d="
  M 159.74 114.43
  Q 169.30 117.65 182.71 122.75
  C 192.02 126.30 204.06 134.89 205.61 145.40
  L 160.41 145.42
  A 0.68 0.68 0.0 0 1 159.73 144.74
  L 159.74 114.43
  Z"
/>
<path fill="#e8edf0" d="
  M 850.71 150.29
  L 823.30 150.29
  A 0.37 0.37 0.0 0 1 823.01 149.68
  L 850.53 116.51
  A 0.37 0.37 0.0 0 1 851.19 116.75
  L 851.08 149.92
  A 0.37 0.37 0.0 0 1 850.71 150.29
  Z"
/>
<path fill="#e8edf0" d="
  M 676.44 150.52
  L 689.44 117.70
  A 0.36 0.36 0.0 0 1 690.11 117.70
  L 703.00 150.57
  A 0.36 0.36 0.0 0 1 702.67 151.06
  L 676.77 151.01
  A 0.36 0.36 0.0 0 1 676.44 150.52
  Z"
/>
<path fill="#e8edf0" d="
  M 542.25 150.11
  A 0.61 0.61 0.0 0 1 542.86 149.50
  L 570.23 149.50
  A 13.56 9.96 0.0 0 1 583.79 159.46
  L 583.79 161.56
  A 13.56 9.96 -0.0 0 1 570.23 171.52
  L 542.86 171.52
  A 0.61 0.61 0.0 0 1 542.25 170.91
  L 542.25 150.11
  Z"
/>
<path fill="#4a8c8c" d="
  M 194.06 181.03
  L 93.52 214.24
  L 83.15 213.69
  C 93.43 201.62 109.07 198.83 123.94 194.90
  Q 124.31 194.80 124.74 194.20
  Q 124.97 194.54 125.48 194.39
  Q 142.29 189.42 159.00 184.13
  Q 159.52 183.96 159.57 183.42
  L 159.63 182.78
  L 159.71 183.07
  Q 159.80 183.43 160.15 183.32
  L 169.18 180.70
  Q 177.10 180.40 185.46 180.18
  Q 187.33 180.13 189.75 180.51
  Q 191.74 180.83 194.06 181.03
  Z"
/>
<path fill="#e8edf0" d="
  M 169.18 180.70
  L 160.15 183.32
  Q 159.80 183.43 159.71 183.07
  L 159.63 182.78
  Q 159.48 181.80 159.77 181.10
  Q 159.98 180.60 160.52 180.61
  L 169.18 180.70
  Z"
/>
<path fill="#4a8c8c" d="
  M 120.72 227.34
  Q 121.34 224.57 125.12 222.17
  A 1.41 1.40 -59.0 0 0 124.48 219.58
  L 113.04 218.69
  A 1.03 1.02 71.7 0 1 112.33 218.33
  L 111.56 217.42
  L 207.11 185.95
  A 0.40 0.39 -6.4 0 1 207.63 186.36
  L 206.52 198.63
  Q 206.47 199.16 205.96 199.33
  L 120.72 227.34
  Z"
/>
<path fill="#4a8c8c" d="
  M 159.72 234.29
  Q 159.59 234.25 159.48 234.21
  Q 159.24 234.12 159.01 234.20
  L 124.75 245.30
  Q 111.17 248.93 99.00 255.08
  Q 98.51 255.08 98.40 254.99
  A 1.00 0.98 -49.1 0 1 98.31 253.57
  L 110.68 239.71
  L 202.05 209.65
  A 0.57 0.57 0.0 0 1 202.69 210.53
  C 192.53 224.23 176.77 229.04 161.13 233.32
  C 160.62 233.46 160.10 233.95 159.72 234.29
  Z"
/>
<path fill="#ee5051" d="
  M 93.52 214.24
  Q 102.49 216.56 111.56 217.42
  L 112.33 218.33
  A 1.03 1.02 71.7 0 0 113.04 218.69
  L 124.48 219.58
  A 1.41 1.40 -59.0 0 1 125.12 222.17
  Q 121.34 224.57 120.72 227.34
  L 110.68 239.71
  L 98.31 253.57
  A 1.00 0.98 -49.1 0 0 98.40 254.99
  Q 98.51 255.08 99.00 255.08
  C 91.40 259.59 82.32 265.53 79.26 274.16
  A 0.30 0.30 0.0 0 1 78.68 274.06
  Q 78.92 248.38 79.15 223.00
  Q 79.19 218.69 83.15 213.69
  L 93.52 214.24
  Z
  M 99.53 227.33
  A 0.34 0.34 0.0 0 1 99.14 227.22
  L 96.26 223.50
  A 0.34 0.34 0.0 0 0 95.65 223.72
  L 95.85 228.43
  A 0.34 0.34 0.0 0 1 95.62 228.76
  L 91.19 230.35
  A 0.34 0.34 0.0 0 0 91.21 231.00
  L 95.75 232.26
  A 0.34 0.34 0.0 0 1 96.00 232.58
  L 96.14 237.29
  A 0.34 0.34 0.0 0 0 96.77 237.46
  L 99.37 233.54
  A 0.34 0.34 0.0 0 1 99.75 233.40
  L 104.27 234.72
  A 0.34 0.34 0.0 0 0 104.63 234.18
  L 101.70 230.49
  A 0.34 0.34 0.0 0 1 101.69 230.09
  L 104.34 226.20
  A 0.34 0.34 0.0 0 0 103.94 225.69
  L 99.53 227.33
  Z"
/>
<path fill="#e8edf0" d="
  M 99.53 227.33
  L 103.94 225.69
  A 0.34 0.34 0.0 0 1 104.34 226.20
  L 101.69 230.09
  A 0.34 0.34 0.0 0 0 101.70 230.49
  L 104.63 234.18
  A 0.34 0.34 0.0 0 1 104.27 234.72
  L 99.75 233.40
  A 0.34 0.34 0.0 0 0 99.37 233.54
  L 96.77 237.46
  A 0.34 0.34 0.0 0 1 96.14 237.29
  L 96.00 232.58
  A 0.34 0.34 0.0 0 0 95.75 232.26
  L 91.21 231.00
  A 0.34 0.34 0.0 0 1 91.19 230.35
  L 95.62 228.76
  A 0.34 0.34 0.0 0 0 95.85 228.43
  L 95.65 223.72
  A 0.34 0.34 0.0 0 1 96.26 223.50
  L 99.14 227.22
  A 0.34 0.34 0.0 0 0 99.53 227.33
  Z"
/>
<path fill="#4c4c4c" d="
  M 314.00 348.63
  C 281.23 348.32 255.88 325.96 252.20 293.75
  C 249.53 270.45 259.50 247.06 279.22 234.23
  Q 296.37 223.08 318.74 223.80
  Q 348.44 224.75 365.93 248.30
  A 0.54 0.53 53.0 0 1 365.83 249.05
  L 341.69 267.72
  Q 341.20 268.10 340.79 267.64
  C 331.91 257.64 321.80 251.46 307.86 255.08
  C 286.42 260.64 280.58 288.13 291.66 305.60
  C 298.73 316.75 312.45 320.89 324.80 316.75
  C 332.27 314.26 336.45 309.72 341.71 304.09
  Q 342.05 303.72 342.46 304.01
  L 366.56 321.19
  A 0.59 0.59 0.0 0 1 366.70 322.01
  Q 347.53 348.94 314.00 348.63
  Z"
/>
<path fill="#4c4c4c" d="
  M 766.86 263.19
  C 757.98 257.01 747.85 252.80 737.00 251.76
  C 732.04 251.29 723.93 251.78 722.07 257.52
  C 720.02 263.88 725.60 266.68 731.30 268.29
  Q 741.89 271.28 752.58 273.93
  C 768.11 277.78 783.75 285.38 786.74 302.69
  C 790.75 325.91 775.06 343.45 752.77 347.09
  C 729.55 350.88 700.67 345.55 682.89 328.75
  Q 682.46 328.34 682.84 327.88
  L 700.62 306.63
  A 0.59 0.59 0.0 0 1 701.45 306.56
  Q 715.79 318.29 734.50 320.44
  C 739.97 321.07 751.39 321.31 753.24 314.40
  Q 755.05 307.66 747.59 304.85
  C 725.50 296.51 690.80 296.96 688.19 265.78
  C 686.24 242.57 703.45 227.19 725.30 224.67
  C 745.98 222.29 767.11 226.57 783.60 239.67
  Q 784.04 240.01 783.72 240.47
  L 767.76 263.03
  A 0.65 0.65 0.0 0 1 766.86 263.19
  Z"
/>
<path fill="#4c4c4c" d="
  M 457.33 270.58
  L 457.32 226.52
  A 0.51 0.51 0.0 0 1 457.83 226.01
  L 490.17 226.01
  A 0.51 0.51 0.0 0 1 490.68 226.52
  L 490.65 345.74
  A 0.51 0.51 0.0 0 1 490.14 346.25
  L 457.81 346.26
  A 0.51 0.51 0.0 0 1 457.30 345.75
  L 457.35 301.05
  A 0.51 0.51 0.0 0 0 456.84 300.54
  L 415.11 300.57
  A 0.51 0.51 0.0 0 0 414.60 301.08
  L 414.57 345.74
  A 0.51 0.51 0.0 0 1 414.06 346.25
  L 381.77 346.26
  A 0.51 0.51 0.0 0 1 381.26 345.75
  L 381.26 226.53
  A 0.51 0.51 0.0 0 1 381.77 226.02
  L 414.06 226.01
  A 0.51 0.51 0.0 0 1 414.57 226.52
  L 414.55 270.64
  A 0.51 0.51 0.0 0 0 415.06 271.15
  L 456.82 271.09
  A 0.51 0.51 0.0 0 0 457.33 270.58
  Z"
/>
<path fill="#4c4c4c" d="
  M 545.25 310.41
  L 545.25 345.75
  Q 545.25 346.24 544.75 346.24
  L 512.59 346.26
  Q 511.91 346.26 511.91 345.59
  L 511.93 226.54
  Q 511.93 226.09 512.38 226.08
  Q 546.53 225.86 570.97 226.08
  C 591.30 226.27 612.58 234.47 617.41 256.50
  C 620.98 272.73 616.63 289.64 603.17 299.17
  Q 600.01 301.41 594.46 304.20
  Q 593.92 304.47 594.26 304.97
  L 621.96 345.46
  Q 622.51 346.26 621.54 346.26
  L 584.75 346.27
  A 1.38 1.37 72.9 0 1 583.61 345.66
  L 560.06 310.23
  A 0.92 0.91 -16.3 0 0 559.29 309.81
  L 545.84 309.82
  A 0.59 0.59 0.0 0 0 545.25 310.41
  Z
  M 545.22 255.46
  L 545.26 283.22
  A 0.53 0.53 0.0 0 0 545.80 283.75
  L 569.43 283.71
  A 15.66 13.44 -0.1 0 0 585.06 270.25
  L 585.06 268.31
  A 15.66 13.44 -0.1 0 0 569.37 254.89
  L 545.74 254.93
  A 0.53 0.53 0.0 0 0 545.22 255.46
  Z"
/>
<rect fill="#4c4c4c" x="636.01" y="226.02" width="33.52" height="120.24" rx="0.44"/>
<path fill="#4c4c4c" d="
  M 862.69 255.75
  L 862.68 345.75
  A 0.50 0.50 0.0 0 1 862.18 346.25
  L 829.83 346.25
  A 0.50 0.50 0.0 0 1 829.33 345.75
  L 829.34 255.74
  A 0.50 0.50 0.0 0 0 828.84 255.24
  L 793.81 255.29
  A 0.50 0.50 0.0 0 1 793.31 254.79
  L 793.35 226.51
  A 0.50 0.50 0.0 0 1 793.85 226.01
  L 898.21 226.01
  A 0.50 0.50 0.0 0 1 898.71 226.51
  L 898.74 254.77
  A 0.50 0.50 0.0 0 1 898.24 255.27
  L 863.19 255.25
  A 0.50 0.50 0.0 0 0 862.69 255.75
  Z"
/>
<path fill="#4c4c4c" d="
  M 159.72 234.29
  L 159.73 268.09
  L 159.75 318.05
  L 159.75 348.99
  Q 159.75 349.68 159.09 349.47
  L 125.20 338.28
  Q 124.73 338.12 124.73 337.63
  L 124.70 306.08
  L 124.80 255.76
  L 124.75 245.30
  L 159.01 234.20
  Q 159.24 234.12 159.48 234.21
  Q 159.59 234.25 159.72 234.29
  Z"
/>
<path fill="#ee5051" d="
  M 124.80 255.76
  L 124.70 306.08
  Q 107.00 302.35 97.25 298.27
  Q 87.13 294.03 81.39 284.83
  Q 77.65 278.83 82.11 273.14
  C 88.64 264.80 97.57 259.55 107.37 255.15
  C 110.59 253.71 113.28 252.25 116.83 253.34
  Q 120.66 254.51 124.80 255.76
  Z"
/>
<path fill="#e8edf0" d="
  M 545.22 255.46
  A 0.53 0.53 0.0 0 1 545.74 254.93
  L 569.37 254.89
  A 15.66 13.44 -0.1 0 1 585.06 268.31
  L 585.06 270.25
  A 15.66 13.44 -0.1 0 1 569.43 283.71
  L 545.80 283.75
  A 0.53 0.53 0.0 0 1 545.26 283.22
  L 545.22 255.46
  Z"
/>
<path fill="#ee5051" d="
  M 159.73 268.09
  C 176.07 272.96 199.36 278.78 204.54 297.49
  Q 206.28 303.73 206.45 313.25
  Q 206.78 331.38 206.21 349.64
  Q 206.16 351.05 205.83 349.68
  C 201.53 332.03 175.06 322.95 159.75 318.05
  L 159.73 268.09
  Z"
/>
</svg>
